<svg viewBox="0 0 512 512" xmlns="http://www.w3.org/2000/svg">
  <rect width="512" height="512" rx="112" fill="#0E0F12"/>
  <g transform="translate(256 256) scale(1.85) translate(-100 -118)" fill="#D2734F">
    <path d="M95.4 52.3c8.5-1 18.7 1.2 26.3 5 11.9 5.8 21 16.1 25.3 28.6 16 46.9-45 103.1-78.6 127.3-4.4 3.2-9.1 6.9-13.9 9.4-.8.4-2.8-.1-3.5-.6-2-.7-4.8-6-3.2-7.7 2.7-2.9 7.3-5.5 10.7-8 25.8-18.3 50-40.2 67.2-67.1.6-1 1.2-1.9 1.7-2.9 7.9-13.4 14.2-28.5 10-44.3-2.7-9.9-9.1-18.3-18-23.5-9.3-5.4-20.4-6.8-30.8-3.9-12.9 3.5-23.2 13.2-27.7 25.8-.5 1.5-1 3.3-1.4 4.8-5.1 21-21.6 37.6-39.7 48.4-2.1 1.3-5.1 3.5-7.4 4.1-4 1-7.5-7.8-4.4-10.1 2-1.6 4.3-2.7 6.5-4 13.5-8 26.3-19.6 32.2-34.4 1.2-3.1 1.9-6.3 2.9-9.5 6.4-21.1 24-35.4 45.9-37.5z"/>
    <path d="M95 .2C105.7-.7 119.9 1.6 130.1 4.8c25.9 8.5 47.4 26.9 59.7 51.1 8.8 17.4 12.5 37 10.7 56.4-.4 4.1-.4 12.1-4.7 14-3.2 1.6-6.7-2.6-6.7-5.5 0-4 .8-8.3 1-12.4.8-13.5-1.3-27-6.4-39.5C173.9 44.6 156.4 27.6 132.6 17.4 113 9.7 91.3 9 71.3 15.6 44.1 24.6 22.7 45.9 13.8 73.2c-2.1 6.2-3 12.7-5.2 18.7-.3.7-2.5 1.8-3.4 1.9-8.1.8-5-10.1-4-14.6C5 62.7 12.7 47.5 23.8 34.8 42.3 13.6 67 2 95 .2z"/>
    <path d="M97.3 25.9c4-.2 10 .2 13.9.8 33.5 5 59.6 31.8 63.8 65.5.6 4.6.9 9.9.5 14.7-.8 11.7 2.9 24 12.5 31.4 2.5 2.3 6 3.4 5.2 7.4-2.2 12.1-11.6 2.6-16.1-2.2-7.7-8.3-12.1-19-12.4-30.3-.2-4.9.2-9.8-.1-14.8-.4-7.2-2-14.2-4.7-20.9-7.1-17.3-19.6-28.9-36.6-36.1-10.9-4.2-22.8-5.4-34.3-3.5-23.6 3.8-43.1 19.6-51.6 41.9-2.9 8.1-4.3 16.4-9.7 23.4-4.4 5.6-9.7 10.6-15.8 14.2-3 1.8-7.1 4.7-10 2.3-1.4-1.2-2.3-7.5-.7-8.8 4-3.2 8.7-4.7 12.3-8.4 9.3-7.9 10.2-18 14.4-28.6C40.1 44.7 66.4 27.5 97.3 25.9z"/>
  </g>
</svg>
