<svg width="202" height="282" viewBox="0 0 202 282" fill="none" xmlns="http://www.w3.org/2000/svg">
<path d="M95.426 52.2743C103.883 51.298 114.129 53.5129 121.727 57.2488C133.606 63.0803 142.679 73.3945 146.951 85.9204C162.923 132.852 101.902 189.102 68.3072 213.253C63.9005 216.421 59.1804 220.148 54.4421 222.675C53.6393 223.101 51.6149 222.59 50.9501 222.105C48.8968 221.432 46.1259 216.083 47.7399 214.397C50.4714 211.543 55.0567 208.847 58.4727 206.429C84.2875 188.138 108.501 166.188 125.637 139.36C126.218 138.397 126.799 137.431 127.369 136.461C135.295 123.026 141.514 107.907 137.343 92.1686C134.64 82.2816 128.189 73.8387 119.359 68.6354C110.021 63.2587 98.9173 61.852 88.5355 64.7306C75.6429 68.2768 65.2966 77.8995 60.8262 90.5017C60.2965 91.9915 59.7654 93.79 59.3983 95.3157C54.3348 116.358 37.8206 132.875 19.7103 143.665C17.5895 144.928 14.6285 147.122 12.306 147.735C8.34163 148.782 4.85029 139.989 7.92387 137.636C9.92541 136.01 12.2138 134.958 14.4356 133.647C27.9143 125.693 40.7274 114.02 46.6278 99.2364C47.8005 96.1685 48.5596 92.9305 49.5078 89.7855C55.883 68.6337 73.4738 54.3473 95.426 52.2743Z" fill="currentColor"></path>
<path d="M94.9888 0.192845C105.748 -0.688085 119.935 1.55067 130.135 4.83894C156.013 13.3065 177.482 31.6836 189.836 55.9463C198.638 73.3548 202.355 92.8919 200.56 112.316C200.194 116.458 200.155 124.431 195.882 126.376C192.673 127.959 189.171 123.763 189.171 120.844C189.167 116.801 189.984 112.533 190.223 108.411C191.05 94.9286 188.878 81.4303 183.863 68.8875C174.181 44.61 156.735 27.608 132.89 17.3881C113.28 9.66312 91.5812 9.0465 71.562 15.6452C44.3249 24.5816 22.9605 45.9382 14.015 73.1725C11.9529 79.3316 11.0628 85.8835 8.85541 91.924C8.59321 92.6416 6.30622 93.7401 5.47386 93.8182C-2.63788 94.582 0.38607 83.719 1.37892 79.1933C4.98324 62.7403 12.6867 47.4654 23.7739 34.786C42.3244 13.586 67.0239 2.01137 94.9888 0.192845Z" fill="currentColor"></path>
<path d="M97.3214 25.8825C101.312 25.7135 107.359 26.1183 111.199 26.6944C144.747 31.7509 170.826 58.5223 175 92.1905C175.592 96.8049 175.862 102.137 175.539 106.842C174.687 118.521 178.407 130.878 187.952 138.233C190.405 140.532 193.903 141.647 193.168 145.626C190.922 157.77 181.536 148.264 177.045 143.421C169.383 135.157 164.991 124.389 164.685 113.126C164.533 108.191 164.945 103.362 164.646 98.3303C164.241 91.1611 162.654 84.108 159.944 77.4583C152.856 60.1177 140.337 48.5723 123.295 41.3915C112.385 37.1952 100.552 35.9725 89.0139 37.8491C65.427 41.6414 45.8681 57.4446 37.4276 79.7326C34.4818 87.8102 33.1137 96.1021 27.7152 103.094C23.3665 108.725 18.0323 113.732 11.9971 117.354C9.00166 119.152 4.88173 122.071 1.96582 119.587C0.546407 118.377 -0.309538 112.058 1.32069 110.744C5.30195 107.534 10.003 106.033 13.6734 102.302C22.9076 94.4715 23.8557 84.3611 27.9816 73.7674C40.1038 44.7037 66.3843 27.468 97.3214 25.8825Z" fill="currentColor"></path>
<path d="M97.3341 78.6488C101.051 78.3588 104.781 78.9229 108.248 80.298C114.316 82.7039 119.127 87.4961 121.562 93.5531C134.901 126.347 63.9798 185.347 39.6383 199.386C35.9027 201.54 28.9629 193.536 33.5503 189.827C35.9111 187.916 38.5729 186.508 41.0855 184.84C45.5595 181.823 49.9511 178.685 54.2551 175.43C74.0625 160.334 92.347 142.254 105.573 121.055C109.216 114.993 113.661 107.014 112.137 99.7686C111.44 96.4279 109.413 93.5155 106.52 91.7064C103.338 89.7324 99.4986 89.1186 95.8595 90.0027C83.8136 92.9298 85.9137 104.378 82.6747 113.387C74.0896 137.27 53.7965 155.671 33.0663 169.332C30.5429 170.995 27.3419 173.447 24.5583 174.395C19.9097 175.979 15.8796 167.567 19.3012 164.729C22.2727 162.47 26.0291 160.639 29.2107 158.472C37.055 153.176 44.4392 147.228 51.2854 140.692C59.6723 132.553 69.7364 119.694 72.9563 108.267C75.0814 100.727 74.1889 94.8075 79.8563 87.9511C84.5527 82.2696 90.0586 79.4544 97.3341 78.6488Z" fill="currentColor"></path>
<path d="M160.294 184.826C160.417 184.826 160.537 184.826 160.656 184.826C171.968 186.294 161.776 198.088 158.503 202.519C140.585 226.772 117.536 244.978 93.1701 262.181C95.3311 265.021 99.4594 269.041 102.05 271.518C107.596 266.141 113.379 260.999 118.781 255.396C122.906 251.2 126.908 246.889 131.047 242.708C132.55 241.04 134.978 239.959 137.065 241.321C141.778 244.401 135.386 250.011 132.962 252.753C128.136 258.539 109.94 277.473 104.383 281.19C103.908 281.218 99.8043 281.447 99.2518 281.007C95.5492 278.054 78.8992 262.234 80.3091 258C80.7438 256.694 90.1623 250.725 92.7829 248.892C99.5298 244.161 106.094 239.171 112.453 233.927C123.089 225.167 133.014 215.576 142.13 205.243C144.484 202.593 146.73 199.759 149.007 197.123C152.051 193.6 155.916 186.125 160.294 184.826Z" fill="currentColor"></path>
<path d="M154.297 144.038C155.592 143.888 157.932 143.618 158.949 144.657C161.135 146.895 162.888 149.709 164.788 152.222C166.471 154.408 168.28 156.497 170.201 158.476C173.812 162.249 177.272 164.336 181.379 167.457C183.702 169.224 182.055 173.419 180.784 175.443C177.275 181.033 171.943 174.01 168.698 171.876C164.264 168.505 160.199 164.047 156.655 159.765C140.838 186.653 118.155 209.762 93.5712 228.739C88.6298 232.551 83.6058 236.257 78.5036 239.85C75.9072 241.719 72.3934 245.059 69.1769 244.908C65.5493 244.739 61.3502 238.643 64.7127 235.82C67.238 233.701 70.2028 231.847 72.9149 229.96C77.5906 226.701 82.1948 223.344 86.724 219.884C102.296 208.041 116.522 194.526 129.146 179.582C135.471 172.11 141.257 164.198 146.459 155.907C148.268 152.979 151.91 145.688 154.297 144.038Z" fill="currentColor"></path>
</svg>